<svg viewBox="0 0 120 120" xmlns="http://www.w3.org/2000/svg" width="120" height="120">

  <circle cx="60" cy="60" r="58" fill="#fdf8ee" stroke="#d4af37" stroke-width="3"/>

  <circle cx="60" cy="70" r="22" fill="#d4af37" opacity="0.15"/>

  <line x1="60" y1="34" x2="60" y2="27" stroke="#d4af37" stroke-width="2.5" stroke-linecap="round"/>
  <line x1="73" y1="38" x2="78" y2="32" stroke="#d4af37" stroke-width="2.5" stroke-linecap="round"/>
  <line x1="82" y1="50" x2="89" y2="46" stroke="#d4af37" stroke-width="2.5" stroke-linecap="round"/>
  <line x1="47" y1="38" x2="42" y2="32" stroke="#d4af37" stroke-width="2.5" stroke-linecap="round"/>
  <line x1="38" y1="50" x2="31" y2="46" stroke="#d4af37" stroke-width="2.5" stroke-linecap="round"/>

  <circle cx="60" cy="53" r="13" fill="#d4af37"/>
  <circle cx="56" cy="49" r="4" fill="#f5d87a" opacity="0.5"/>

  <ellipse cx="60" cy="88" rx="46" ry="18" fill="#2d6a3f"/>

  <rect x="26" y="70" width="5" height="14" rx="2" fill="#5a3a1a"/>
  <circle cx="28" cy="66" r="10" fill="#3a8a52"/>
  <circle cx="22" cy="70" r="7" fill="#3a8a52"/>
  <circle cx="34" cy="70" r="7" fill="#3a8a52"/>

  <rect x="89" y="70" width="5" height="14" rx="2" fill="#5a3a1a"/>
  <circle cx="91" cy="66" r="10" fill="#3a8a52"/>
  <circle cx="85" cy="70" r="7" fill="#3a8a52"/>
  <circle cx="97" cy="70" r="7" fill="#3a8a52"/>

  <rect x="46" y="72" width="28" height="22" rx="2" fill="#fff8f0"/>
  <polygon points="43,73 60,57 77,73" fill="#a82222"/>
  <polygon points="43,73 60,57 77,73" fill="none" stroke="#7a1a1a" stroke-width="1"/>

  <rect x="67" y="59" width="5" height="11" rx="1" fill="#a82222"/>
  <circle cx="70" cy="55" r="3" fill="#cccccc" opacity="0.55"/>
  <circle cx="72" cy="51" r="2.5" fill="#cccccc" opacity="0.38"/>
  <circle cx="70" cy="47" r="2" fill="#cccccc" opacity="0.22"/>

  <rect x="56" y="83" width="8" height="11" rx="2" fill="#5a3a1a"/>
  <circle cx="63" cy="89" r="1.3" fill="#d4af37"/>

  <rect x="48" y="76" width="7" height="6" rx="1" fill="#9fd3e8" stroke="#aaaaaa" stroke-width="0.5"/>
  <rect x="65" y="76" width="7" height="6" rx="1" fill="#9fd3e8" stroke="#aaaaaa" stroke-width="0.5"/>

  <polygon points="54,94 66,94 70,106 50,106" fill="#c8b89a" opacity="0.8"/>

  <circle cx="60" cy="60" r="56" fill="none" stroke="#d4af37" stroke-width="1.5" stroke-dasharray="4 3" opacity="0.5"/>

</svg>
